<mxfile host="app.diagrams.net" modified="2021-11-26T02:40:31.054Z" agent="5.0 (Windows NT 10.0; Win64; x64) AppleWebKit/537.36 (KHTML, like Gecko) Chrome/94.0.4606.81 Safari/537.36 OPR/80.0.4170.63" etag="Zg7WJoTUf9BAs9ifXoF3" version="15.8.6" type="github">
  <diagram id="hc1qaLdbe4nQevih2E96" name="Page-1">
    <mxGraphModel dx="1655" dy="1621" grid="1" gridSize="10" guides="1" tooltips="1" connect="1" arrows="1" fold="1" page="1" pageScale="1" pageWidth="827" pageHeight="1169" math="0" shadow="0">
      <root>
        <mxCell id="0" />
        <mxCell id="1" parent="0" />
        <mxCell id="SWu4bheXvnoV0TDEIfbe-8" style="edgeStyle=orthogonalEdgeStyle;rounded=0;orthogonalLoop=1;jettySize=auto;html=1;entryX=0.5;entryY=0;entryDx=0;entryDy=0;endArrow=none;endFill=0;" parent="1" source="SWu4bheXvnoV0TDEIfbe-1" target="SWu4bheXvnoV0TDEIfbe-7" edge="1">
          <mxGeometry relative="1" as="geometry" />
        </mxCell>
        <mxCell id="SWu4bheXvnoV0TDEIfbe-17" value="" style="edgeStyle=orthogonalEdgeStyle;rounded=0;orthogonalLoop=1;jettySize=auto;html=1;endArrow=none;endFill=0;" parent="1" source="SWu4bheXvnoV0TDEIfbe-1" target="SWu4bheXvnoV0TDEIfbe-16" edge="1">
          <mxGeometry relative="1" as="geometry" />
        </mxCell>
        <mxCell id="y5nSSGaz-b-D0ARjHBHh-8" value="" style="edgeStyle=none;rounded=0;orthogonalLoop=1;jettySize=auto;html=1;endArrow=none;endFill=0;" edge="1" parent="1" source="SWu4bheXvnoV0TDEIfbe-1" target="y5nSSGaz-b-D0ARjHBHh-7">
          <mxGeometry relative="1" as="geometry" />
        </mxCell>
        <mxCell id="y5nSSGaz-b-D0ARjHBHh-10" value="" style="edgeStyle=none;rounded=0;orthogonalLoop=1;jettySize=auto;html=1;endArrow=none;endFill=0;" edge="1" parent="1" source="SWu4bheXvnoV0TDEIfbe-1" target="y5nSSGaz-b-D0ARjHBHh-9">
          <mxGeometry relative="1" as="geometry" />
        </mxCell>
        <mxCell id="y5nSSGaz-b-D0ARjHBHh-12" value="" style="edgeStyle=none;rounded=0;orthogonalLoop=1;jettySize=auto;html=1;endArrow=none;endFill=0;" edge="1" parent="1" source="SWu4bheXvnoV0TDEIfbe-1" target="y5nSSGaz-b-D0ARjHBHh-11">
          <mxGeometry relative="1" as="geometry" />
        </mxCell>
        <mxCell id="y5nSSGaz-b-D0ARjHBHh-14" value="" style="edgeStyle=none;rounded=0;orthogonalLoop=1;jettySize=auto;html=1;endArrow=none;endFill=0;" edge="1" parent="1" source="SWu4bheXvnoV0TDEIfbe-1" target="y5nSSGaz-b-D0ARjHBHh-13">
          <mxGeometry relative="1" as="geometry" />
        </mxCell>
        <mxCell id="y5nSSGaz-b-D0ARjHBHh-16" value="" style="edgeStyle=none;rounded=0;orthogonalLoop=1;jettySize=auto;html=1;endArrow=none;endFill=0;" edge="1" parent="1" source="SWu4bheXvnoV0TDEIfbe-1" target="y5nSSGaz-b-D0ARjHBHh-15">
          <mxGeometry relative="1" as="geometry" />
        </mxCell>
        <mxCell id="y5nSSGaz-b-D0ARjHBHh-18" value="" style="edgeStyle=none;rounded=0;orthogonalLoop=1;jettySize=auto;html=1;endArrow=none;endFill=0;" edge="1" parent="1" source="SWu4bheXvnoV0TDEIfbe-1" target="y5nSSGaz-b-D0ARjHBHh-17">
          <mxGeometry relative="1" as="geometry" />
        </mxCell>
        <mxCell id="y5nSSGaz-b-D0ARjHBHh-20" value="" style="edgeStyle=none;rounded=0;orthogonalLoop=1;jettySize=auto;html=1;endArrow=none;endFill=0;" edge="1" parent="1" source="SWu4bheXvnoV0TDEIfbe-1" target="y5nSSGaz-b-D0ARjHBHh-19">
          <mxGeometry relative="1" as="geometry" />
        </mxCell>
        <mxCell id="y5nSSGaz-b-D0ARjHBHh-22" value="" style="edgeStyle=none;rounded=0;orthogonalLoop=1;jettySize=auto;html=1;endArrow=none;endFill=0;" edge="1" parent="1" source="SWu4bheXvnoV0TDEIfbe-1" target="y5nSSGaz-b-D0ARjHBHh-21">
          <mxGeometry relative="1" as="geometry" />
        </mxCell>
        <mxCell id="SWu4bheXvnoV0TDEIfbe-1" value="Personal" style="rounded=0;whiteSpace=wrap;html=1;fillColor=#dae8fc;strokeColor=#6c8ebf;strokeWidth=3;perimeterSpacing=1;" parent="1" vertex="1">
          <mxGeometry x="-30" y="160" width="120" height="60" as="geometry" />
        </mxCell>
        <mxCell id="SWu4bheXvnoV0TDEIfbe-37" value="" style="edgeStyle=orthogonalEdgeStyle;rounded=0;orthogonalLoop=1;jettySize=auto;html=1;endArrow=none;endFill=0;" parent="1" source="SWu4bheXvnoV0TDEIfbe-2" target="SWu4bheXvnoV0TDEIfbe-36" edge="1">
          <mxGeometry relative="1" as="geometry" />
        </mxCell>
        <mxCell id="SWu4bheXvnoV0TDEIfbe-2" value="&lt;b&gt;Vehiculo&lt;/b&gt;" style="rounded=0;whiteSpace=wrap;html=1;fillColor=#dae8fc;strokeColor=#6c8ebf;strokeWidth=3;" parent="1" vertex="1">
          <mxGeometry x="340" y="230" width="120" height="60" as="geometry" />
        </mxCell>
        <mxCell id="SWu4bheXvnoV0TDEIfbe-12" style="edgeStyle=orthogonalEdgeStyle;rounded=0;orthogonalLoop=1;jettySize=auto;html=1;entryX=1;entryY=0.5;entryDx=0;entryDy=0;endArrow=none;endFill=0;" parent="1" source="SWu4bheXvnoV0TDEIfbe-3" target="SWu4bheXvnoV0TDEIfbe-10" edge="1">
          <mxGeometry relative="1" as="geometry" />
        </mxCell>
        <mxCell id="SWu4bheXvnoV0TDEIfbe-14" value="" style="edgeStyle=orthogonalEdgeStyle;rounded=0;orthogonalLoop=1;jettySize=auto;html=1;endArrow=none;endFill=0;" parent="1" source="SWu4bheXvnoV0TDEIfbe-3" target="SWu4bheXvnoV0TDEIfbe-13" edge="1">
          <mxGeometry relative="1" as="geometry" />
        </mxCell>
        <mxCell id="SWu4bheXvnoV0TDEIfbe-3" value="&lt;b&gt;Dependencia&lt;/b&gt;" style="rounded=0;whiteSpace=wrap;html=1;fillColor=#dae8fc;strokeColor=#6c8ebf;strokeWidth=3;" parent="1" vertex="1">
          <mxGeometry x="200" y="-40" width="120" height="60" as="geometry" />
        </mxCell>
        <mxCell id="SWu4bheXvnoV0TDEIfbe-20" value="" style="edgeStyle=orthogonalEdgeStyle;rounded=0;orthogonalLoop=1;jettySize=auto;html=1;endArrow=none;endFill=0;" parent="1" source="SWu4bheXvnoV0TDEIfbe-4" target="SWu4bheXvnoV0TDEIfbe-19" edge="1">
          <mxGeometry relative="1" as="geometry" />
        </mxCell>
        <mxCell id="SWu4bheXvnoV0TDEIfbe-47" value="" style="edgeStyle=orthogonalEdgeStyle;rounded=0;orthogonalLoop=1;jettySize=auto;html=1;endArrow=none;endFill=0;" parent="1" source="SWu4bheXvnoV0TDEIfbe-4" target="SWu4bheXvnoV0TDEIfbe-46" edge="1">
          <mxGeometry relative="1" as="geometry" />
        </mxCell>
        <mxCell id="SWu4bheXvnoV0TDEIfbe-54" value="" style="edgeStyle=orthogonalEdgeStyle;rounded=0;orthogonalLoop=1;jettySize=auto;html=1;endArrow=none;endFill=0;" parent="1" source="SWu4bheXvnoV0TDEIfbe-4" target="SWu4bheXvnoV0TDEIfbe-53" edge="1">
          <mxGeometry relative="1" as="geometry" />
        </mxCell>
        <mxCell id="SWu4bheXvnoV0TDEIfbe-4" value="&lt;b&gt;Mantenimiento&lt;/b&gt;" style="rounded=0;whiteSpace=wrap;html=1;fillColor=#dae8fc;strokeColor=#6c8ebf;strokeWidth=3;" parent="1" vertex="1">
          <mxGeometry x="520" y="350" width="120" height="60" as="geometry" />
        </mxCell>
        <mxCell id="SWu4bheXvnoV0TDEIfbe-5" value="&lt;b&gt;Tipo_Mantenimiento&lt;/b&gt;" style="rounded=0;whiteSpace=wrap;html=1;fillColor=#dae8fc;strokeColor=#6c8ebf;strokeWidth=3;" parent="1" vertex="1">
          <mxGeometry x="520" y="600" width="120" height="60" as="geometry" />
        </mxCell>
        <mxCell id="y5nSSGaz-b-D0ARjHBHh-4" value="" style="edgeStyle=none;rounded=0;orthogonalLoop=1;jettySize=auto;html=1;endArrow=none;endFill=0;exitX=0.5;exitY=1;exitDx=0;exitDy=0;entryX=0.5;entryY=0;entryDx=0;entryDy=0;" edge="1" parent="1" source="SWu4bheXvnoV0TDEIfbe-6" target="y5nSSGaz-b-D0ARjHBHh-1">
          <mxGeometry relative="1" as="geometry" />
        </mxCell>
        <mxCell id="y5nSSGaz-b-D0ARjHBHh-5" style="edgeStyle=none;rounded=0;orthogonalLoop=1;jettySize=auto;html=1;endArrow=none;endFill=0;entryX=0.5;entryY=0;entryDx=0;entryDy=0;exitX=0.5;exitY=1;exitDx=0;exitDy=0;" edge="1" parent="1" source="SWu4bheXvnoV0TDEIfbe-6" target="y5nSSGaz-b-D0ARjHBHh-6">
          <mxGeometry relative="1" as="geometry">
            <mxPoint x="-30" y="635" as="targetPoint" />
          </mxGeometry>
        </mxCell>
        <mxCell id="SWu4bheXvnoV0TDEIfbe-6" value="&lt;b&gt;Rango&lt;/b&gt;" style="rounded=0;whiteSpace=wrap;html=1;fillColor=#dae8fc;strokeColor=#6c8ebf;strokeWidth=3;" parent="1" vertex="1">
          <mxGeometry x="-100" y="515" width="120" height="60" as="geometry" />
        </mxCell>
        <mxCell id="SWu4bheXvnoV0TDEIfbe-9" style="edgeStyle=orthogonalEdgeStyle;rounded=0;orthogonalLoop=1;jettySize=auto;html=1;endArrow=none;endFill=0;" parent="1" source="SWu4bheXvnoV0TDEIfbe-7" target="SWu4bheXvnoV0TDEIfbe-6" edge="1">
          <mxGeometry relative="1" as="geometry" />
        </mxCell>
        <mxCell id="SWu4bheXvnoV0TDEIfbe-7" value="&lt;b&gt;tiene&lt;/b&gt;" style="rhombus;whiteSpace=wrap;html=1;fillColor=#fff2cc;strokeColor=#d6b656;strokeWidth=3;" parent="1" vertex="1">
          <mxGeometry x="-80" y="365" width="80" height="80" as="geometry" />
        </mxCell>
        <mxCell id="SWu4bheXvnoV0TDEIfbe-11" style="edgeStyle=orthogonalEdgeStyle;rounded=0;orthogonalLoop=1;jettySize=auto;html=1;entryX=0.5;entryY=0;entryDx=0;entryDy=0;endArrow=none;endFill=0;" parent="1" source="SWu4bheXvnoV0TDEIfbe-10" target="SWu4bheXvnoV0TDEIfbe-1" edge="1">
          <mxGeometry relative="1" as="geometry" />
        </mxCell>
        <mxCell id="SWu4bheXvnoV0TDEIfbe-10" value="&lt;b&gt;es asignada&lt;/b&gt;" style="rhombus;whiteSpace=wrap;html=1;fillColor=#fff2cc;strokeColor=#d6b656;strokeWidth=3;" parent="1" vertex="1">
          <mxGeometry x="-10" width="80" height="80" as="geometry" />
        </mxCell>
        <mxCell id="SWu4bheXvnoV0TDEIfbe-15" style="edgeStyle=orthogonalEdgeStyle;rounded=0;orthogonalLoop=1;jettySize=auto;html=1;entryX=0.5;entryY=0;entryDx=0;entryDy=0;endArrow=none;endFill=0;" parent="1" source="SWu4bheXvnoV0TDEIfbe-13" target="SWu4bheXvnoV0TDEIfbe-2" edge="1">
          <mxGeometry relative="1" as="geometry" />
        </mxCell>
        <mxCell id="SWu4bheXvnoV0TDEIfbe-13" value="&lt;b&gt;es vinculado&lt;/b&gt;" style="rhombus;whiteSpace=wrap;html=1;rounded=0;fillColor=#fff2cc;strokeColor=#d6b656;strokeWidth=3;" parent="1" vertex="1">
          <mxGeometry x="360" y="80" width="80" height="80" as="geometry" />
        </mxCell>
        <mxCell id="SWu4bheXvnoV0TDEIfbe-18" style="edgeStyle=orthogonalEdgeStyle;rounded=0;orthogonalLoop=1;jettySize=auto;html=1;entryX=0;entryY=0.5;entryDx=0;entryDy=0;endArrow=none;endFill=0;" parent="1" source="SWu4bheXvnoV0TDEIfbe-16" target="SWu4bheXvnoV0TDEIfbe-2" edge="1">
          <mxGeometry relative="1" as="geometry" />
        </mxCell>
        <mxCell id="SWu4bheXvnoV0TDEIfbe-16" value="&lt;b&gt;se encarga&lt;/b&gt;" style="rhombus;whiteSpace=wrap;html=1;rounded=0;fillColor=#fff2cc;strokeColor=#d6b656;strokeWidth=3;" parent="1" vertex="1">
          <mxGeometry x="170" y="220" width="80" height="80" as="geometry" />
        </mxCell>
        <mxCell id="SWu4bheXvnoV0TDEIfbe-21" style="edgeStyle=orthogonalEdgeStyle;rounded=0;orthogonalLoop=1;jettySize=auto;html=1;entryX=0.5;entryY=0;entryDx=0;entryDy=0;endArrow=none;endFill=0;" parent="1" source="SWu4bheXvnoV0TDEIfbe-19" target="SWu4bheXvnoV0TDEIfbe-5" edge="1">
          <mxGeometry relative="1" as="geometry" />
        </mxCell>
        <mxCell id="SWu4bheXvnoV0TDEIfbe-19" value="&lt;b&gt;Se divide&lt;/b&gt;" style="rhombus;whiteSpace=wrap;html=1;rounded=0;fillColor=#fff2cc;strokeColor=#d6b656;strokeWidth=3;" parent="1" vertex="1">
          <mxGeometry x="540" y="460" width="80" height="80" as="geometry" />
        </mxCell>
        <mxCell id="SWu4bheXvnoV0TDEIfbe-24" value="&lt;b&gt;(1,1)&lt;/b&gt;" style="text;html=1;strokeColor=none;fillColor=none;align=center;verticalAlign=middle;whiteSpace=wrap;rounded=0;" parent="1" vertex="1">
          <mxGeometry x="180" y="190" width="60" height="30" as="geometry" />
        </mxCell>
        <mxCell id="SWu4bheXvnoV0TDEIfbe-25" value="&lt;b&gt;(1,1)&lt;/b&gt;" style="text;html=1;strokeColor=none;fillColor=none;align=center;verticalAlign=middle;whiteSpace=wrap;rounded=0;" parent="1" vertex="1">
          <mxGeometry x="280" y="260" width="60" height="30" as="geometry" />
        </mxCell>
        <mxCell id="SWu4bheXvnoV0TDEIfbe-26" value="&lt;b&gt;(1,1)&lt;/b&gt;" style="text;html=1;strokeColor=none;fillColor=none;align=center;verticalAlign=middle;whiteSpace=wrap;rounded=0;" parent="1" vertex="1">
          <mxGeometry x="90" y="160" width="60" height="30" as="geometry" />
        </mxCell>
        <mxCell id="SWu4bheXvnoV0TDEIfbe-27" value="&lt;b&gt;(1,1)&lt;/b&gt;" style="text;html=1;strokeColor=none;fillColor=none;align=center;verticalAlign=middle;whiteSpace=wrap;rounded=0;" parent="1" vertex="1">
          <mxGeometry x="30" y="220" width="60" height="30" as="geometry" />
        </mxCell>
        <mxCell id="SWu4bheXvnoV0TDEIfbe-28" value="&lt;b&gt;(1,N)&lt;/b&gt;" style="text;html=1;strokeColor=none;fillColor=none;align=center;verticalAlign=middle;whiteSpace=wrap;rounded=0;" parent="1" vertex="1">
          <mxGeometry x="-100" y="485" width="60" height="30" as="geometry" />
        </mxCell>
        <mxCell id="SWu4bheXvnoV0TDEIfbe-29" value="&lt;b&gt;(1,N)&lt;/b&gt;" style="text;html=1;strokeColor=none;fillColor=none;align=center;verticalAlign=middle;whiteSpace=wrap;rounded=0;" parent="1" vertex="1">
          <mxGeometry x="-140" y="390" width="60" height="30" as="geometry" />
        </mxCell>
        <mxCell id="SWu4bheXvnoV0TDEIfbe-30" value="&lt;b&gt;(1,N)&lt;/b&gt;" style="text;html=1;strokeColor=none;fillColor=none;align=center;verticalAlign=middle;whiteSpace=wrap;rounded=0;" parent="1" vertex="1">
          <mxGeometry x="30" y="130" width="60" height="30" as="geometry" />
        </mxCell>
        <mxCell id="SWu4bheXvnoV0TDEIfbe-31" value="&lt;b&gt;(1,N)&lt;/b&gt;" style="text;html=1;strokeColor=none;fillColor=none;align=center;verticalAlign=middle;whiteSpace=wrap;rounded=0;" parent="1" vertex="1">
          <mxGeometry x="140" y="-40" width="60" height="30" as="geometry" />
        </mxCell>
        <mxCell id="SWu4bheXvnoV0TDEIfbe-32" value="&lt;b&gt;(N,M)&lt;/b&gt;" style="text;html=1;strokeColor=none;fillColor=none;align=center;verticalAlign=middle;whiteSpace=wrap;rounded=0;" parent="1" vertex="1">
          <mxGeometry y="-30" width="60" height="30" as="geometry" />
        </mxCell>
        <mxCell id="SWu4bheXvnoV0TDEIfbe-33" value="&lt;b&gt;(1,1)&lt;/b&gt;" style="text;html=1;strokeColor=none;fillColor=none;align=center;verticalAlign=middle;whiteSpace=wrap;rounded=0;" parent="1" vertex="1">
          <mxGeometry x="400" y="200" width="60" height="30" as="geometry" />
        </mxCell>
        <mxCell id="SWu4bheXvnoV0TDEIfbe-34" value="&lt;b&gt;(1,N)&lt;/b&gt;" style="text;html=1;strokeColor=none;fillColor=none;align=center;verticalAlign=middle;whiteSpace=wrap;rounded=0;" parent="1" vertex="1">
          <mxGeometry x="320" y="-40" width="60" height="30" as="geometry" />
        </mxCell>
        <mxCell id="SWu4bheXvnoV0TDEIfbe-35" value="&lt;b&gt;(1,N)&lt;/b&gt;" style="text;html=1;strokeColor=none;fillColor=none;align=center;verticalAlign=middle;whiteSpace=wrap;rounded=0;" parent="1" vertex="1">
          <mxGeometry x="440" y="105" width="60" height="30" as="geometry" />
        </mxCell>
        <mxCell id="SWu4bheXvnoV0TDEIfbe-38" style="edgeStyle=orthogonalEdgeStyle;rounded=0;orthogonalLoop=1;jettySize=auto;html=1;entryX=0.5;entryY=0;entryDx=0;entryDy=0;endArrow=none;endFill=0;" parent="1" source="SWu4bheXvnoV0TDEIfbe-36" target="SWu4bheXvnoV0TDEIfbe-4" edge="1">
          <mxGeometry relative="1" as="geometry" />
        </mxCell>
        <mxCell id="SWu4bheXvnoV0TDEIfbe-36" value="&lt;b&gt;registrado&lt;/b&gt;" style="rhombus;whiteSpace=wrap;html=1;rounded=0;strokeColor=#d6b656;strokeWidth=3;fillColor=#fff2cc;" parent="1" vertex="1">
          <mxGeometry x="540" y="220" width="80" height="80" as="geometry" />
        </mxCell>
        <mxCell id="SWu4bheXvnoV0TDEIfbe-39" value="&lt;b&gt;(1,1)&lt;/b&gt;" style="text;html=1;strokeColor=none;fillColor=none;align=center;verticalAlign=middle;whiteSpace=wrap;rounded=0;" parent="1" vertex="1">
          <mxGeometry x="460" y="260" width="60" height="30" as="geometry" />
        </mxCell>
        <mxCell id="SWu4bheXvnoV0TDEIfbe-40" value="&lt;b&gt;(1,1)&lt;/b&gt;" style="text;html=1;strokeColor=none;fillColor=none;align=center;verticalAlign=middle;whiteSpace=wrap;rounded=0;" parent="1" vertex="1">
          <mxGeometry x="580" y="320" width="60" height="30" as="geometry" />
        </mxCell>
        <mxCell id="SWu4bheXvnoV0TDEIfbe-41" value="&lt;b&gt;(1,1)&lt;/b&gt;" style="text;html=1;strokeColor=none;fillColor=none;align=center;verticalAlign=middle;whiteSpace=wrap;rounded=0;" parent="1" vertex="1">
          <mxGeometry x="550" y="190" width="60" height="30" as="geometry" />
        </mxCell>
        <mxCell id="SWu4bheXvnoV0TDEIfbe-42" value="&lt;b&gt;(1,N)&lt;/b&gt;" style="text;html=1;strokeColor=none;fillColor=none;align=center;verticalAlign=middle;whiteSpace=wrap;rounded=0;" parent="1" vertex="1">
          <mxGeometry x="520" y="570" width="60" height="30" as="geometry" />
        </mxCell>
        <mxCell id="SWu4bheXvnoV0TDEIfbe-43" value="&lt;b&gt;(1,1)&lt;/b&gt;" style="text;html=1;strokeColor=none;fillColor=none;align=center;verticalAlign=middle;whiteSpace=wrap;rounded=0;" parent="1" vertex="1">
          <mxGeometry x="520" y="410" width="60" height="30" as="geometry" />
        </mxCell>
        <mxCell id="SWu4bheXvnoV0TDEIfbe-44" value="&lt;b&gt;(1,1)&lt;/b&gt;" style="text;html=1;strokeColor=none;fillColor=none;align=center;verticalAlign=middle;whiteSpace=wrap;rounded=0;" parent="1" vertex="1">
          <mxGeometry x="460" y="260" width="60" height="30" as="geometry" />
        </mxCell>
        <mxCell id="SWu4bheXvnoV0TDEIfbe-45" value="&lt;b&gt;(1,N)&lt;/b&gt;" style="text;html=1;strokeColor=none;fillColor=none;align=center;verticalAlign=middle;whiteSpace=wrap;rounded=0;" parent="1" vertex="1">
          <mxGeometry x="480" y="485" width="60" height="30" as="geometry" />
        </mxCell>
        <mxCell id="SWu4bheXvnoV0TDEIfbe-49" value="" style="edgeStyle=orthogonalEdgeStyle;rounded=0;orthogonalLoop=1;jettySize=auto;html=1;endArrow=none;endFill=0;" parent="1" source="SWu4bheXvnoV0TDEIfbe-46" target="SWu4bheXvnoV0TDEIfbe-48" edge="1">
          <mxGeometry relative="1" as="geometry" />
        </mxCell>
        <mxCell id="SWu4bheXvnoV0TDEIfbe-46" value="&lt;b&gt;es guardado&lt;/b&gt;" style="rhombus;whiteSpace=wrap;html=1;rounded=0;strokeColor=#d6b656;strokeWidth=3;fillColor=#fff2cc;" parent="1" vertex="1">
          <mxGeometry x="340" y="340" width="80" height="80" as="geometry" />
        </mxCell>
        <mxCell id="SWu4bheXvnoV0TDEIfbe-48" value="&lt;b&gt;Historial&lt;/b&gt;" style="whiteSpace=wrap;html=1;rounded=0;strokeColor=#6c8ebf;strokeWidth=3;fillColor=#dae8fc;" parent="1" vertex="1">
          <mxGeometry x="220" y="485" width="120" height="60" as="geometry" />
        </mxCell>
        <mxCell id="SWu4bheXvnoV0TDEIfbe-50" value="&lt;b&gt;(1,N)&lt;/b&gt;" style="text;html=1;strokeColor=none;fillColor=none;align=center;verticalAlign=middle;whiteSpace=wrap;rounded=0;" parent="1" vertex="1">
          <mxGeometry x="220" y="455" width="60" height="30" as="geometry" />
        </mxCell>
        <mxCell id="SWu4bheXvnoV0TDEIfbe-51" value="&lt;b&gt;(1,N)&lt;/b&gt;" style="text;html=1;strokeColor=none;fillColor=none;align=center;verticalAlign=middle;whiteSpace=wrap;rounded=0;" parent="1" vertex="1">
          <mxGeometry x="280" y="365" width="60" height="30" as="geometry" />
        </mxCell>
        <mxCell id="SWu4bheXvnoV0TDEIfbe-52" value="&lt;b&gt;(1,1)&lt;/b&gt;" style="text;html=1;strokeColor=none;fillColor=none;align=center;verticalAlign=middle;whiteSpace=wrap;rounded=0;" parent="1" vertex="1">
          <mxGeometry x="460" y="350" width="60" height="30" as="geometry" />
        </mxCell>
        <mxCell id="SWu4bheXvnoV0TDEIfbe-56" value="" style="edgeStyle=orthogonalEdgeStyle;rounded=0;orthogonalLoop=1;jettySize=auto;html=1;endArrow=none;endFill=0;" parent="1" source="SWu4bheXvnoV0TDEIfbe-53" target="SWu4bheXvnoV0TDEIfbe-55" edge="1">
          <mxGeometry relative="1" as="geometry" />
        </mxCell>
        <mxCell id="SWu4bheXvnoV0TDEIfbe-53" value="es creado" style="rhombus;whiteSpace=wrap;html=1;rounded=0;strokeColor=#d6b656;strokeWidth=3;fillColor=#fff2cc;fontStyle=1" parent="1" vertex="1">
          <mxGeometry x="740" y="340" width="80" height="80" as="geometry" />
        </mxCell>
        <mxCell id="SWu4bheXvnoV0TDEIfbe-58" value="" style="edgeStyle=orthogonalEdgeStyle;rounded=0;orthogonalLoop=1;jettySize=auto;html=1;endArrow=none;endFill=0;" parent="1" source="SWu4bheXvnoV0TDEIfbe-55" target="SWu4bheXvnoV0TDEIfbe-57" edge="1">
          <mxGeometry relative="1" as="geometry" />
        </mxCell>
        <mxCell id="SWu4bheXvnoV0TDEIfbe-55" value="Usuario" style="whiteSpace=wrap;html=1;rounded=0;fontStyle=1;strokeColor=#6c8ebf;strokeWidth=3;fillColor=#dae8fc;" parent="1" vertex="1">
          <mxGeometry x="720" y="190" width="120" height="60" as="geometry" />
        </mxCell>
        <mxCell id="SWu4bheXvnoV0TDEIfbe-60" value="" style="edgeStyle=orthogonalEdgeStyle;rounded=0;orthogonalLoop=1;jettySize=auto;html=1;endArrow=none;endFill=0;" parent="1" source="SWu4bheXvnoV0TDEIfbe-57" target="SWu4bheXvnoV0TDEIfbe-59" edge="1">
          <mxGeometry relative="1" as="geometry" />
        </mxCell>
        <mxCell id="SWu4bheXvnoV0TDEIfbe-57" value="tiene" style="rhombus;whiteSpace=wrap;html=1;rounded=0;fontStyle=1;strokeColor=#d6b656;strokeWidth=3;fillColor=#fff2cc;" parent="1" vertex="1">
          <mxGeometry x="740" y="40" width="80" height="80" as="geometry" />
        </mxCell>
        <mxCell id="SWu4bheXvnoV0TDEIfbe-59" value="Rol" style="whiteSpace=wrap;html=1;rounded=0;fontStyle=1;strokeColor=#6c8ebf;strokeWidth=3;fillColor=#dae8fc;" parent="1" vertex="1">
          <mxGeometry x="560" y="50" width="120" height="60" as="geometry" />
        </mxCell>
        <mxCell id="SWu4bheXvnoV0TDEIfbe-61" value="&lt;b&gt;(1,1)&lt;/b&gt;" style="text;html=1;strokeColor=none;fillColor=none;align=center;verticalAlign=middle;whiteSpace=wrap;rounded=0;" parent="1" vertex="1">
          <mxGeometry x="640" y="380" width="60" height="30" as="geometry" />
        </mxCell>
        <mxCell id="SWu4bheXvnoV0TDEIfbe-62" value="&lt;b&gt;(1,N)&lt;/b&gt;" style="text;html=1;strokeColor=none;fillColor=none;align=center;verticalAlign=middle;whiteSpace=wrap;rounded=0;" parent="1" vertex="1">
          <mxGeometry x="780" y="250" width="60" height="30" as="geometry" />
        </mxCell>
        <mxCell id="SWu4bheXvnoV0TDEIfbe-63" value="&lt;b&gt;(1,N)&lt;/b&gt;" style="text;html=1;strokeColor=none;fillColor=none;align=center;verticalAlign=middle;whiteSpace=wrap;rounded=0;" parent="1" vertex="1">
          <mxGeometry x="827" y="365" width="60" height="30" as="geometry" />
        </mxCell>
        <mxCell id="SWu4bheXvnoV0TDEIfbe-64" value="&lt;b&gt;(1,1)&lt;/b&gt;" style="text;html=1;strokeColor=none;fillColor=none;align=center;verticalAlign=middle;whiteSpace=wrap;rounded=0;" parent="1" vertex="1">
          <mxGeometry x="780" y="160" width="60" height="30" as="geometry" />
        </mxCell>
        <mxCell id="SWu4bheXvnoV0TDEIfbe-65" value="&lt;b&gt;(1,N)&lt;/b&gt;" style="text;html=1;strokeColor=none;fillColor=none;align=center;verticalAlign=middle;whiteSpace=wrap;rounded=0;" parent="1" vertex="1">
          <mxGeometry x="680" y="50" width="60" height="30" as="geometry" />
        </mxCell>
        <mxCell id="SWu4bheXvnoV0TDEIfbe-66" value="&lt;b&gt;(1,N)&lt;/b&gt;" style="text;html=1;strokeColor=none;fillColor=none;align=center;verticalAlign=middle;whiteSpace=wrap;rounded=0;" parent="1" vertex="1">
          <mxGeometry x="827" y="65" width="60" height="30" as="geometry" />
        </mxCell>
        <mxCell id="y5nSSGaz-b-D0ARjHBHh-1" value="Id_rango" style="ellipse;whiteSpace=wrap;html=1;rounded=0;strokeColor=#6c8ebf;strokeWidth=3;fillColor=#dae8fc;" vertex="1" parent="1">
          <mxGeometry x="-170" y="625" width="120" height="60" as="geometry" />
        </mxCell>
        <mxCell id="y5nSSGaz-b-D0ARjHBHh-6" value="rango" style="ellipse;whiteSpace=wrap;html=1;rounded=0;strokeColor=#6c8ebf;strokeWidth=3;fillColor=#dae8fc;" vertex="1" parent="1">
          <mxGeometry x="-30" y="625" width="120" height="60" as="geometry" />
        </mxCell>
        <mxCell id="y5nSSGaz-b-D0ARjHBHh-7" value="Id_Personal" style="ellipse;whiteSpace=wrap;html=1;rounded=0;strokeColor=#6c8ebf;strokeWidth=3;fillColor=#dae8fc;" vertex="1" parent="1">
          <mxGeometry x="-170" y="-40" width="120" height="60" as="geometry" />
        </mxCell>
        <mxCell id="y5nSSGaz-b-D0ARjHBHh-9" value="Nombre" style="ellipse;whiteSpace=wrap;html=1;rounded=0;strokeColor=#6c8ebf;strokeWidth=3;fillColor=#dae8fc;" vertex="1" parent="1">
          <mxGeometry x="-320" y="-20" width="120" height="60" as="geometry" />
        </mxCell>
        <mxCell id="y5nSSGaz-b-D0ARjHBHh-11" value="Telefono" style="ellipse;whiteSpace=wrap;html=1;rounded=0;strokeColor=#6c8ebf;strokeWidth=3;fillColor=#dae8fc;" vertex="1" parent="1">
          <mxGeometry x="-190" y="300" width="120" height="60" as="geometry" />
        </mxCell>
        <mxCell id="y5nSSGaz-b-D0ARjHBHh-13" value="TipoSangre" style="ellipse;whiteSpace=wrap;html=1;rounded=0;strokeColor=#6c8ebf;strokeWidth=3;fillColor=#dae8fc;" vertex="1" parent="1">
          <mxGeometry x="-260" y="220" width="120" height="60" as="geometry" />
        </mxCell>
        <mxCell id="y5nSSGaz-b-D0ARjHBHh-15" value="Apellido" style="ellipse;whiteSpace=wrap;html=1;rounded=0;strokeColor=#6c8ebf;strokeWidth=3;fillColor=#dae8fc;" vertex="1" parent="1">
          <mxGeometry x="-260" y="70" width="120" height="60" as="geometry" />
        </mxCell>
        <mxCell id="y5nSSGaz-b-D0ARjHBHh-17" value="FechaNacimiento" style="ellipse;whiteSpace=wrap;html=1;rounded=0;strokeColor=#6c8ebf;strokeWidth=3;fillColor=#dae8fc;" vertex="1" parent="1">
          <mxGeometry x="-400" y="185" width="120" height="60" as="geometry" />
        </mxCell>
        <mxCell id="y5nSSGaz-b-D0ARjHBHh-19" value="CuidadNacimiento" style="ellipse;whiteSpace=wrap;html=1;rounded=0;strokeColor=#6c8ebf;strokeWidth=3;fillColor=#dae8fc;" vertex="1" parent="1">
          <mxGeometry x="-330" y="300" width="120" height="60" as="geometry" />
        </mxCell>
        <mxCell id="y5nSSGaz-b-D0ARjHBHh-21" value="Identificacion" style="ellipse;whiteSpace=wrap;html=1;rounded=0;strokeColor=#6c8ebf;strokeWidth=3;fillColor=#dae8fc;" vertex="1" parent="1">
          <mxGeometry x="-410" y="100" width="120" height="60" as="geometry" />
        </mxCell>
      </root>
    </mxGraphModel>
  </diagram>
</mxfile>
